<svg width="484" height="403" viewBox="0 0 484 403" fill="none" xmlns="http://www.w3.org/2000/svg">
<g clip-path="url(#clip0_1_1279)">
<path d="M21.7954 395.248L122.533 393.945L83.4966 383.206L87.8966 373.899L112.864 370.472L106.468 368.989L89.2779 368.222L21.7954 395.248Z" fill="#172B4D"/>
<path d="M77.5105 347.716L74.4408 347.767L48.9109 338.255L77.7663 354.619L82.4732 350.733L77.5105 347.716Z" fill="#36B37E"/>
<path d="M77.5109 347.715L127.189 338.612L102.376 362.699L77.5109 347.715Z" fill="#172B4D"/>
<path d="M48.9109 338.255L98.487 366.432L87.3337 368.478L60.0131 370.472L48.9109 338.255Z" fill="white" stroke="#36B37E" stroke-width="0.633632" stroke-miterlimit="10" stroke-linejoin="round"/>
<path d="M98.4872 366.432L127.189 338.612L106.468 368.989L98.4872 366.432Z" fill="white" stroke="#36B37E" stroke-width="0.633632" stroke-miterlimit="10" stroke-linejoin="round"/>
<path d="M77.7666 354.619L90.6083 344.033L91.9385 345.107L87.8967 360.398L77.7666 354.619Z" fill="white" stroke="#36B37E" stroke-width="0.633632" stroke-miterlimit="10" stroke-linejoin="round"/>
<path d="M91.9384 345.107L103.552 361.574L98.4872 366.432L87.8966 360.397L91.9384 345.107Z" fill="white" stroke="#36B37E" stroke-width="0.633632" stroke-miterlimit="10" stroke-linejoin="round"/>
<path d="M106.469 368.989L87.334 368.477L98.4873 366.432L106.469 368.989Z" fill="white" stroke="#36B37E" stroke-width="0.633632" stroke-miterlimit="10" stroke-linejoin="round"/>
<path d="M40.367 361.114L36.274 361.83L0.255859 354.568L42.2088 370.216L47.6832 364.029L40.367 361.114Z" fill="white" stroke="#36B37E" stroke-width="0.633632" stroke-miterlimit="10" stroke-linejoin="round"/>
<path d="M40.3669 361.114L104.627 338.613L76.6409 375.689L40.3669 361.114Z" fill="#C5E9DA" stroke="#36B37E" stroke-width="0.633632" stroke-miterlimit="10"/>
<path d="M0.255859 354.568L72.3433 381.416L57.8644 386.53L21.8463 394.865L0.255859 354.568Z" fill="white" stroke="#36B37E" stroke-width="0.633632" stroke-miterlimit="10" stroke-linejoin="round"/>
<path d="M72.3431 381.416L104.626 338.613L83.4965 383.206L72.3431 381.416Z" fill="white" stroke="#36B37E" stroke-width="0.633632" stroke-miterlimit="10" stroke-linejoin="round"/>
<path d="M42.2086 370.217L57.0968 353.494L59.0921 354.568L56.9433 375.689L42.2086 370.217Z" fill="#36B37E"/>
<path d="M59.0922 354.568L77.971 373.95L72.3432 381.416L56.9434 375.688L59.0922 354.568Z" fill="white" stroke="#36B37E" stroke-width="0.633632" stroke-miterlimit="10" stroke-linejoin="round"/>
<path d="M83.4965 383.206L57.8643 386.53L72.3431 381.416L83.4965 383.206Z" fill="white" stroke="#36B37E" stroke-width="0.633632" stroke-miterlimit="10" stroke-linejoin="round"/>
<mask id="mask0_1_1279" style="mask-type:alpha" maskUnits="userSpaceOnUse" x="-1" y="354" width="74" height="41">
<path d="M0.166504 354.759L72.2078 381.309L57.9414 386.223L21.9233 394.558L0.166504 354.759Z" fill="white" stroke="#36B37E" stroke-width="0.633632" stroke-miterlimit="10" stroke-linejoin="round"/>
</mask>
<g mask="url(#mask0_1_1279)">
<path d="M43.5389 382.49L35.7111 382.746L32.0786 376.456L24.5578 376.762L28.0879 383.001L20.6694 383.206L24.0973 389.496L31.6693 389.343L39.3948 389.138L43.1808 395.735L51.2644 395.633L55.255 402.383H63.6456L59.5526 395.53L55.5108 388.831L47.3249 388.985L43.5389 382.49Z" fill="#C5E9DA"/>
<path d="M39.7531 376.098L36.0694 369.859L28.4974 370.268L32.0788 376.456L39.7531 376.098Z" fill="#C5E9DA"/>
<path d="M51.5204 382.235L47.6832 375.74L39.7531 376.098L43.5391 382.49L51.5204 382.235Z" fill="#36B37E"/>
<path d="M55.7667 375.433L51.8272 368.99L43.8459 369.45L47.6831 375.74L55.7667 375.433Z" fill="#172B4D"/>
<path d="M59.7575 381.928L51.5204 382.234L55.511 388.831L63.8505 388.627L72.4457 388.422L68.1992 381.672L64.0551 375.075L55.7668 375.433L59.7575 381.928Z" fill="#36B37E"/>
<path d="M17.2416 377.07L24.5578 376.763L21.13 370.677L28.4973 370.268L25.0183 364.183L17.7533 364.643L10.6417 365.103L13.9161 371.035L6.90689 371.444L0 371.802L3.12089 377.683L10.1301 377.376L13.4045 383.462L20.6695 383.206L17.2416 377.07Z" fill="#36B37E"/>
<path d="M6.29285 383.718L9.56722 389.803L16.7299 389.65L13.4044 383.462L6.29285 383.718Z" fill="#36B37E"/>
<path d="M0.613892 359.835L3.73478 365.563L10.6417 365.103L7.46962 359.324L0.613892 359.835Z" fill="#36B37E"/>
<path d="M36.0693 369.859L43.846 369.45L40.1111 363.262L36.4786 357.176L28.9578 357.739L21.5905 358.25L25.0183 364.182L32.488 363.722L36.0693 369.859Z" fill="#36B37E"/>
<path d="M56.0226 362.239L47.9901 362.75L51.8273 368.989L60.0132 368.58L56.0226 362.239Z" fill="#36B37E"/>
<path d="M72.5992 374.666L68.3527 368.12L60.0133 368.58L64.0551 375.075L72.5992 374.666Z" fill="#36B37E"/>
<path d="M16.7301 389.65L20.158 395.991L27.6276 395.888L24.0975 389.496L16.7301 389.65Z" fill="#36B37E"/>
</g>
</g>
<mask id="mask1_1_1279" style="mask-type:alpha" maskUnits="userSpaceOnUse" x="364" y="0" width="68" height="127">
<rect x="364" width="68" height="127" fill="#C4C4C4"/>
</mask>
<g mask="url(#mask1_1_1279)">
<path d="M435.803 106.077L479.808 121.042H416.67L408.575 120.159L404.651 117.706L418.044 106.077H435.803Z" fill="#172B4D"/>
<path d="M430.014 78.6006V76.2455C430.014 76.2455 424.863 66.0399 424.127 65.9418C423.391 65.8437 363.54 40.9186 363.54 40.9186L386.352 85.3226L395.379 94.9393L430.014 78.6006Z" fill="white" stroke="#36B37E" stroke-width="0.598795" stroke-miterlimit="10"/>
<mask id="mask2_1_1279" style="mask-type:alpha" maskUnits="userSpaceOnUse" x="363" y="40" width="68" height="56">
<path d="M430.197 78.8672V76.5121C430.197 76.5121 425.046 66.3065 424.31 66.2084C423.574 66.1103 363.723 41.1852 363.723 41.1852L386.535 85.5892L395.562 95.2059L430.197 78.8672Z" fill="white" stroke="#36B37E" stroke-width="0.598795" stroke-miterlimit="10"/>
</mask>
<g mask="url(#mask2_1_1279)">
<path d="M405.043 67.0709L397.537 67.3163L394.103 61.2322L386.891 61.5756L390.276 67.5125L383.114 67.7578L386.45 73.7929L393.661 73.6457L401.118 73.4494L404.749 79.7297L412.451 79.6807L416.277 86.1573H424.372L420.398 79.5825L416.522 73.1059L408.722 73.3022L405.043 67.0709Z" fill="#C5E9DA"/>
<path d="M401.461 60.9376L397.929 54.9517L390.669 55.3442L394.103 61.232L401.461 60.9376Z" fill="#36B37E"/>
<path d="M412.745 66.7766L409.017 60.5944L401.462 60.9378L405.043 67.071L412.745 66.7766Z" fill="#36B37E"/>
<path d="M416.768 60.2506L412.99 54.1174L405.386 54.51L409.016 60.594L416.768 60.2506Z" fill="#36B37E"/>
<path d="M420.643 66.5309L412.745 66.7762L416.522 73.1056L424.568 72.9584L432.81 72.7622L428.738 66.2856L424.764 59.9071L416.768 60.2506L420.643 66.5309Z" fill="#36B37E"/>
<path d="M379.876 61.87L386.891 61.5756L383.604 55.6878L390.669 55.3444L387.333 49.5056L380.366 49.9472L373.547 50.3888L376.687 56.0803L369.917 56.4238L363.343 56.7673L366.336 62.4588L373.008 62.1644L376.147 68.0032L383.114 67.7579L379.876 61.87Z" fill="#172B4D"/>
<path d="M369.377 68.1992L372.468 74.087L379.385 73.9398L376.147 68.0029L369.377 68.1992Z" fill="#36B37E"/>
<path d="M363.932 45.2858L366.875 50.8302L373.547 50.3886L370.457 44.7952L363.932 45.2858Z" fill="#36B37E"/>
<path d="M397.929 54.9517L405.386 54.5101L401.805 48.5733L398.322 42.7345L391.11 43.2742L384.046 43.8139L387.333 49.5055L394.495 49.0639L397.929 54.9517Z" fill="#36B37E"/>
<path d="M417.013 47.5918L409.311 48.0824L412.99 54.1175L420.84 53.7249L417.013 47.5918Z" fill="#36B37E"/>
<path d="M432.908 59.564L428.885 53.2837L420.84 53.7253L424.764 59.9075L432.908 59.564Z" fill="#36B37E"/>
<path d="M379.385 73.9397L382.672 80.0238L389.835 79.9256L386.45 73.7925L379.385 73.9397Z" fill="#36B37E"/>
</g>
<path d="M416.67 77.0303L389.198 82.9181L388.511 84.7335L394.643 93.1236L416.67 77.0303Z" fill="#172B4D"/>
<path d="M440.12 84.5377L434.576 79.8274L425.991 73.3018L404.258 82.0354L403.277 87.2853L408.575 94.7923L440.12 84.5377Z" fill="white" stroke="#36B37E" stroke-width="0.598795" stroke-miterlimit="10"/>
<path d="M428.984 88.1191L445.026 82.9182L435.803 106.077L422.557 106.911L428.984 88.1191Z" fill="white" stroke="#36B37E" stroke-width="0.598795" stroke-miterlimit="10"/>
<path d="M411.764 93.6635L408.575 94.792L407.104 115.743L408.575 120.159L422.557 106.911L428.984 88.1191L411.764 93.6635Z" fill="white" stroke="#36B37E" stroke-width="0.598795" stroke-miterlimit="10"/>
<path d="M454.69 79.8274L482.408 94.7923L411.764 93.6638L454.69 79.8274Z" fill="#C5E9DA" stroke="#36B37E" stroke-width="0.598795" stroke-miterlimit="10"/>
<path d="M408.575 94.7923V91.3578L386.352 60.7902L383.409 65.4514L404.651 117.706L407.104 115.743L408.575 94.7923Z" fill="white" stroke="#36B37E" stroke-width="0.598795" stroke-miterlimit="10"/>
<path d="M386.352 60.7899L383.408 65.4511L373.499 74.6753L381.348 58.8273L386.352 60.7899Z" fill="white" stroke="#36B37E" stroke-width="0.598795" stroke-miterlimit="10"/>
<path d="M439.335 97.1474L411.764 93.6638L440.562 94.1545L439.335 97.1474Z" fill="#172B4D"/>
<path d="M414.757 92.7315L405.141 84.7339L404.749 86.1077L408.575 91.3577V94.7922L414.757 92.7315Z" fill="#172B4D"/>
<path d="M402.59 112.701L400.334 115.497L397.39 112.701L382.035 66.7757L383.409 65.4509L402.59 112.701Z" fill="#C5E9DA" stroke="#36B37E" stroke-width="0.598795" stroke-miterlimit="10"/>
</g>
<defs>
<clipPath id="clip0_1_1279">
<rect width="127.445" height="64.3839" fill="white" transform="translate(0 338)"/>
</clipPath>
</defs>
</svg>
