<svg width="422" height="403" xmlns="http://www.w3.org/2000/svg" fill="none">
 <title>about-me-mobile-background-image</title>
 <mask height="127" width="68" y="0" x="364" maskUnits="userSpaceOnUse" id="mask1_1_1279">
  <rect id="svg_1" fill="#C4C4C4" height="127" width="68" x="364"/>
 </mask>
 <defs>
  <clipPath id="clip0_1_1279">
   <rect id="svg_2" x="0" y="338" fill="white" height="64.3839" width="127.445"/>
  </clipPath>
 </defs>
 <g>
  <title>Layer 1</title>
  <g id="svg_3" clip-path="url(#clip0_1_1279)">
   <path id="svg_4" fill="#172B4D" d="m21.7954,395.248l100.7376,-1.303l-39.0364,-10.739l4.4,-9.307l24.9674,-3.427l-6.396,-1.483l-17.1901,-0.767l-67.4825,27.026z"/>
   <path id="svg_5" fill="#36B37E" d="m77.5105,347.716l-3.0697,0.051l-25.5299,-9.512l28.8554,16.364l4.7069,-3.886l-4.9627,-3.017z"/>
   <path id="svg_6" fill="#172B4D" d="m77.5109,347.715l49.6781,-9.103l-24.813,24.087l-24.8651,-14.984z"/>
   <path id="svg_7" stroke-linejoin="round" stroke-miterlimit="10" stroke-width="0.63363" stroke="#36B37E" fill="white" d="m48.9109,338.255l49.5761,28.177l-11.1533,2.046l-27.3206,1.994l-11.1022,-32.217z"/>
   <path id="svg_8" stroke-linejoin="round" stroke-miterlimit="10" stroke-width="0.63363" stroke="#36B37E" fill="white" d="m98.4872,366.432l28.7018,-27.82l-20.721,30.377l-7.9808,-2.557z"/>
   <path id="svg_9" stroke-linejoin="round" stroke-miterlimit="10" stroke-width="0.63363" stroke="#36B37E" fill="white" d="m77.7666,354.619l12.8417,-10.586l1.3302,1.074l-4.0418,15.291l-10.1301,-5.779z"/>
   <path id="svg_10" stroke-linejoin="round" stroke-miterlimit="10" stroke-width="0.63363" stroke="#36B37E" fill="white" d="m91.9384,345.107l11.6136,16.467l-5.0648,4.858l-10.5906,-6.035l4.0418,-15.29z"/>
   <path id="svg_11" stroke-linejoin="round" stroke-miterlimit="10" stroke-width="0.63363" stroke="#36B37E" fill="white" d="m106.469,368.989l-19.135,-0.512l11.1533,-2.045l7.9817,2.557z"/>
   <path id="svg_12" stroke-linejoin="round" stroke-miterlimit="10" stroke-width="0.63363" stroke="#36B37E" fill="white" d="m40.367,361.114l-4.093,0.716l-36.01814,-7.262l41.95294,15.648l5.4744,-6.187l-7.3162,-2.915z"/>
   <path id="svg_13" stroke-miterlimit="10" stroke-width="0.63363" stroke="#36B37E" fill="#C5E9DA" d="m40.3669,361.114l64.2601,-22.501l-27.9861,37.076l-36.274,-14.575z"/>
   <path id="svg_14" stroke-linejoin="round" stroke-miterlimit="10" stroke-width="0.63363" stroke="#36B37E" fill="white" d="m0.25586,354.568l72.08744,26.848l-14.4789,5.114l-36.0181,8.335l-21.59044,-40.297z"/>
   <path id="svg_15" stroke-linejoin="round" stroke-miterlimit="10" stroke-width="0.63363" stroke="#36B37E" fill="white" d="m72.3431,381.416l32.2829,-42.803l-21.1295,44.593l-11.1534,-1.79z"/>
   <path id="svg_16" fill="#36B37E" d="m42.2086,370.217l14.8882,-16.723l1.9953,1.074l-2.1488,21.121l-14.7347,-5.472z"/>
   <path id="svg_17" stroke-linejoin="round" stroke-miterlimit="10" stroke-width="0.63363" stroke="#36B37E" fill="white" d="m59.0922,354.568l18.8788,19.382l-5.6278,7.466l-15.3998,-5.728l2.1488,-21.12z"/>
   <path id="svg_18" stroke-linejoin="round" stroke-miterlimit="10" stroke-width="0.63363" stroke="#36B37E" fill="white" d="m83.4965,383.206l-25.6322,3.324l14.4788,-5.114l11.1534,1.79z"/>
   <mask height="41" width="74" y="354" x="-1" maskUnits="userSpaceOnUse" id="mask0_1_1279">
    <path id="svg_19" stroke-linejoin="round" stroke-miterlimit="10" stroke-width="0.63363" stroke="#36B37E" fill="white" d="m0.1665,354.759l72.0413,26.55l-14.2664,4.914l-36.0181,8.335l-21.7568,-39.799z"/>
   </mask>
   <g id="svg_20" mask="url(#mask0_1_1279)">
    <path id="svg_21" fill="#C5E9DA" d="m43.5389,382.49l-7.8278,0.256l-3.6325,-6.29l-7.5208,0.306l3.5301,6.239l-7.4185,0.205l3.4279,6.29l7.572,-0.153l7.7255,-0.205l3.786,6.597l8.0836,-0.102l3.9906,6.75l8.3906,0l-4.093,-6.853l-4.0418,-6.699l-8.1859,0.154l-3.786,-6.495z"/>
    <path id="svg_22" fill="#C5E9DA" d="m39.7531,376.098l-3.6837,-6.239l-7.572,0.409l3.5814,6.188l7.6743,-0.358z"/>
    <path id="svg_23" fill="#36B37E" d="m51.5204,382.235l-3.8372,-6.495l-7.9301,0.358l3.786,6.392l7.9813,-0.255z"/>
    <path id="svg_24" fill="#172B4D" d="m55.7667,375.433l-3.9395,-6.443l-7.9813,0.46l3.8372,6.29l8.0836,-0.307z"/>
    <path id="svg_25" fill="#36B37E" d="m59.7575,381.928l-8.2371,0.306l3.9906,6.597l8.3395,-0.204l8.5952,-0.205l-4.2465,-6.75l-4.1441,-6.597l-8.2883,0.358l3.9907,6.495z"/>
    <path id="svg_26" fill="#36B37E" d="m17.2416,377.07l7.3162,-0.307l-3.4278,-6.086l7.3673,-0.409l-3.479,-6.085l-7.265,0.46l-7.1116,0.46l3.2744,5.932l-7.00921,0.409l-6.90689,0.358l3.12089,5.881l7.00921,-0.307l3.2744,6.086l7.265,-0.256l-3.4279,-6.136z"/>
    <path id="svg_27" fill="#36B37E" d="m6.29285,383.718l3.27437,6.085l7.16268,-0.153l-3.3255,-6.188l-7.11155,0.256z"/>
    <path id="svg_28" fill="#36B37E" d="m0.61389,359.835l3.12089,5.728l6.90692,-0.46l-3.17208,-5.779l-6.85573,0.511z"/>
    <path id="svg_29" fill="#36B37E" d="m36.0693,369.859l7.7767,-0.409l-3.7349,-6.188l-3.6325,-6.086l-7.5208,0.563l-7.3673,0.511l3.4278,5.932l7.4697,-0.46l3.5813,6.137z"/>
    <path id="svg_30" fill="#36B37E" d="m56.0226,362.239l-8.0325,0.511l3.8372,6.239l8.1859,-0.409l-3.9906,-6.341z"/>
    <path id="svg_31" fill="#36B37E" d="m72.5992,374.666l-4.2465,-6.546l-8.3394,0.46l4.0418,6.495l8.5441,-0.409z"/>
    <path id="svg_32" fill="#36B37E" d="m16.7301,389.65l3.4279,6.341l7.4696,-0.103l-3.5301,-6.392l-7.3674,0.154z"/>
   </g>
  </g>
  <g id="svg_33" mask="url(#mask1_1_1279)">
   <path id="svg_34" fill="#172B4D" d="m435.803,106.077l44.005,14.965l-63.138,0l-8.095,-0.883l-3.924,-2.453l13.393,-11.629l17.759,0z"/>
   <path id="svg_35" stroke-miterlimit="10" stroke-width="0.59879" stroke="#36B37E" fill="white" d="m430.014,78.6006l0,-2.3551c0,0 -5.151,-10.2056 -5.887,-10.3037c-0.736,-0.0981 -60.587,-25.0232 -60.587,-25.0232l22.812,44.404l9.027,9.6167l34.635,-16.3387z"/>
   <mask height="56" width="68" y="40" x="363" maskUnits="userSpaceOnUse" id="mask2_1_1279">
    <path id="svg_36" stroke-miterlimit="10" stroke-width="0.59879" stroke="#36B37E" fill="white" d="m430.197,78.8672l0,-2.3551c0,0 -5.151,-10.2056 -5.887,-10.3037c-0.736,-0.0981 -60.587,-25.0232 -60.587,-25.0232l22.812,44.404l9.027,9.6167l34.635,-16.3387z"/>
   </mask>
   <g id="svg_37" mask="url(#mask2_1_1279)">
    <path id="svg_38" fill="#C5E9DA" d="m405.043,67.0709l-7.506,0.2454l-3.434,-6.0841l-7.212,0.3434l3.385,5.9369l-7.162,0.2453l3.336,6.0351l7.211,-0.1472l7.457,-0.1963l3.631,6.2803l7.702,-0.049l3.826,6.4766l8.095,0l-3.974,-6.5748l-3.876,-6.4766l-7.8,0.1963l-3.679,-6.2313z"/>
    <path id="svg_39" fill="#36B37E" d="m401.461,60.9376l-3.532,-5.9859l-7.26,0.3925l3.434,5.8878l7.358,-0.2944z"/>
    <path id="svg_40" fill="#36B37E" d="m412.745,66.7766l-3.728,-6.1822l-7.555,0.3434l3.581,6.1332l7.702,-0.2944z"/>
    <path id="svg_41" fill="#36B37E" d="m416.768,60.2506l-3.778,-6.1332l-7.604,0.3926l3.63,6.084l7.752,-0.3434z"/>
    <path id="svg_42" fill="#36B37E" d="m420.643,66.5309l-7.898,0.2453l3.777,6.3294l8.046,-0.1472l8.242,-0.1962l-4.072,-6.4766l-3.974,-6.3785l-7.996,0.3435l3.875,6.2803z"/>
    <path id="svg_43" fill="#172B4D" d="m379.876,61.87l7.015,-0.2944l-3.287,-5.8878l7.065,-0.3434l-3.336,-5.8388l-6.967,0.4416l-6.819,0.4416l3.14,5.6915l-6.77,0.3435l-6.574,0.3435l2.993,5.6915l6.672,-0.2944l3.139,5.8388l6.967,-0.2453l-3.238,-5.8879z"/>
    <path id="svg_44" fill="#36B37E" d="m369.377,68.1992l3.091,5.8878l6.917,-0.1472l-3.238,-5.9369l-6.77,0.1963z"/>
    <path id="svg_45" fill="#36B37E" d="m363.932,45.2858l2.943,5.5444l6.672,-0.4416l-3.09,-5.5934l-6.525,0.4906z"/>
    <path id="svg_46" fill="#36B37E" d="m397.929,54.9517l7.457,-0.4416l-3.581,-5.9368l-3.483,-5.8388l-7.212,0.5397l-7.064,0.5397l3.287,5.6916l7.162,-0.4416l3.434,5.8878z"/>
    <path id="svg_47" fill="#36B37E" d="m417.013,47.5918l-7.702,0.4906l3.679,6.0351l7.85,-0.3926l-3.827,-6.1331z"/>
    <path id="svg_48" fill="#36B37E" d="m432.908,59.564l-4.023,-6.2803l-8.045,0.4416l3.924,6.1822l8.144,-0.3435z"/>
    <path id="svg_49" fill="#36B37E" d="m379.385,73.9397l3.287,6.0841l7.163,-0.0982l-3.385,-6.1331l-7.065,0.1472z"/>
   </g>
   <path id="svg_50" fill="#172B4D" d="m416.67,77.0303l-27.472,5.8878l-0.687,1.8154l6.132,8.3901l22.027,-16.0933z"/>
   <path id="svg_51" stroke-miterlimit="10" stroke-width="0.59879" stroke="#36B37E" fill="white" d="m440.12,84.5377l-5.544,-4.7103l-8.585,-6.5256l-21.733,8.7336l-0.981,5.2499l5.298,7.507l31.545,-10.2546z"/>
   <path id="svg_52" stroke-miterlimit="10" stroke-width="0.59879" stroke="#36B37E" fill="white" d="m428.984,88.1191l16.042,-5.2009l-9.223,23.1588l-13.246,0.834l6.427,-18.7919z"/>
   <path id="svg_53" stroke-miterlimit="10" stroke-width="0.59879" stroke="#36B37E" fill="white" d="m411.764,93.6635l-3.189,1.1285l-1.471,20.951l1.471,4.416l13.982,-13.248l6.427,-18.7919l-17.22,5.5444z"/>
   <path id="svg_54" stroke-miterlimit="10" stroke-width="0.59879" stroke="#36B37E" fill="#C5E9DA" d="m454.69,79.8274l27.718,14.9649l-70.644,-1.1285l42.926,-13.8364z"/>
   <path id="svg_55" stroke-miterlimit="10" stroke-width="0.59879" stroke="#36B37E" fill="white" d="m408.575,94.7923l0,-3.4345l-22.223,-30.5676l-2.943,4.6612l21.242,52.2546l2.453,-1.963l1.471,-20.9507z"/>
   <path id="svg_56" stroke-miterlimit="10" stroke-width="0.59879" stroke="#36B37E" fill="white" d="m386.352,60.7899l-2.944,4.6612l-9.909,9.2242l7.849,-15.848l5.004,1.9626z"/>
   <path id="svg_57" fill="#172B4D" d="m439.335,97.1474l-27.571,-3.4836l28.798,0.4907l-1.227,2.9929z"/>
   <path id="svg_58" fill="#172B4D" d="m414.757,92.7315l-9.616,-7.9976l-0.392,1.3738l3.826,5.25l0,3.4345l6.182,-2.0607z"/>
   <path id="svg_59" stroke-miterlimit="10" stroke-width="0.59879" stroke="#36B37E" fill="#C5E9DA" d="m402.59,112.701l-2.256,2.796l-2.944,-2.796l-15.355,-45.9253l1.374,-1.3248l19.181,47.2501z"/>
  </g>
 </g>
</svg>